<?xml version="1.0" ?><svg viewBox="0 0 64 64" xmlns="http://www.w3.org/2000/svg"><defs><style>.cls-1{fill:#bea785;}.cls-2{fill:#fddfb1;}.cls-3{fill:#bc842c;}.cls-4{fill:#fbb03b;}.cls-5{fill:#adadad;}.cls-6{fill:#e6e6e6;}.cls-7{fill:#c1272d;}.cls-8{fill:#cd5257;}.cls-9{fill:#aaabac;}.cls-10{fill:#ccc;}.cls-11{fill:none;stroke:#000;stroke-linejoin:round;stroke-width:2px;}</style></defs><title/><g data-name="Layer 15" id="Layer_15"><rect class="cls-1" height="10" width="6" x="12" y="16"/><rect class="cls-2" height="10" width="3" x="12" y="16"/><rect class="cls-1" height="10" width="6" x="18" y="16"/><rect class="cls-2" height="10" width="3" x="18" y="16"/><rect class="cls-1" height="10" width="6" x="24" y="16"/><rect class="cls-2" height="10" width="3" x="24" y="16"/><rect class="cls-1" height="10" width="6" x="6" y="16"/><rect class="cls-2" height="10" width="3" x="6" y="16"/><rect class="cls-3" height="10" width="6" x="24" y="6"/><rect class="cls-4" height="10" width="3" x="24" y="6"/><rect class="cls-3" height="10" width="6" x="18" y="6"/><rect class="cls-4" height="10" width="3" x="18" y="6"/><rect class="cls-3" height="10" width="6" x="12" y="6"/><rect class="cls-4" height="10" width="3" x="12" y="6"/><rect class="cls-3" height="10" width="6" x="6" y="6"/><rect class="cls-4" height="10" width="3" x="6" y="6"/><polygon class="cls-5" points="34 62 2 62 2 20 6 20 12 26 24 26 30 20 34 20 34 62"/><polygon class="cls-6" points="30 20 24 26 12 26 6 20 2 20 2 62 31 62 31 20 30 20"/><rect class="cls-7" height="22" width="32" x="2" y="32"/><rect class="cls-8" height="22" width="29" x="2" y="32"/><rect class="cls-2" height="6" width="35" x="8" y="44"/><rect class="cls-4" height="6" width="10" x="8" y="44"/><path class="cls-9" d="M45,35a5,5,0,0,1,10,0,4.93,4.93,0,0,1-1.2,3.21A4.47,4.47,0,0,1,53,47a.09.09,0,0,1,0,0,3,3,0,1,1-4.54-2.56A4.37,4.37,0,0,1,48,42.5a4.47,4.47,0,0,1,.87-2.64A5,5,0,0,1,45,35Z"/><path class="cls-10" d="M54,42.5a4.49,4.49,0,0,0-3.2-4.29A4.93,4.93,0,0,0,52,35a5,5,0,0,0-3.5-4.75,5,5,0,0,0,.37,9.61A4.47,4.47,0,0,0,48,42.5a4.37,4.37,0,0,0,.46,1.94,3,3,0,0,0,0,5.14A3,3,0,0,0,50,47a.09.09,0,0,0,0,0A4.49,4.49,0,0,0,54,42.5Z"/><polygon class="cls-8" points="62 6 58 2 52 8 46 2 42 6 48 12 42 18 46 22 52 16 58 22 62 18 56 12 62 6"/><polyline class="cls-11" points="34 50 34 62 2 62 2 20 6 20 12 26 24 26 30 20 34 20 34 44"/><polyline class="cls-11" points="34 50 34 54 2 54 2 32 34 32 34 44"/><polyline class="cls-11" points="6 20 6 6 12 6 12 25"/><polyline class="cls-11" points="12 25 12 6 18 6 18 26"/><polyline class="cls-11" points="18 26 18 6 24 6 24 25"/><polyline class="cls-11" points="24 25 24 6 30 6 30 20"/><line class="cls-11" x1="6" x2="12" y1="16" y2="16"/><line class="cls-11" x1="12" x2="18" y1="16" y2="16"/><line class="cls-11" x1="18" x2="24" y1="16" y2="16"/><line class="cls-11" x1="24" x2="30" y1="16" y2="16"/><rect class="cls-11" height="6" width="35" x="8" y="44"/><line class="cls-11" x1="18" x2="18" y1="44" y2="50"/><path class="cls-11" d="M45,35a5,5,0,0,1,10,0,4.93,4.93,0,0,1-1.2,3.21A4.47,4.47,0,0,1,53,47a.09.09,0,0,1,0,0,3,3,0,1,1-4.54-2.56A4.37,4.37,0,0,1,48,42.5a4.47,4.47,0,0,1,.87-2.64A5,5,0,0,1,45,35Z"/><polygon class="cls-11" points="62 6 58 2 52 8 46 2 42 6 48 12 42 18 46 22 52 16 58 22 62 18 56 12 62 6"/></g></svg>